<svg xmlns="http://www.w3.org/2000/svg" height="16" width="16" viewBox="0 0 16 16"><title>logo instagram</title><g fill="#000000" class="nc-icon-wrapper"><path d="M8,1.441c2.136,0,2.389.009,3.233.047a4.419,4.419,0,0,1,1.485.276,2.472,2.472,0,0,1,.92.6,2.472,2.472,0,0,1,.6.92,4.419,4.419,0,0,1,.276,1.485c.038.844.047,1.1.047,3.233s-.009,2.389-.047,3.233a4.419,4.419,0,0,1-.276,1.485,2.644,2.644,0,0,1-1.518,1.518,4.419,4.419,0,0,1-1.485.276c-.844.038-1.1.047-3.233.047s-2.389-.009-3.233-.047a4.419,4.419,0,0,1-1.485-.276,2.472,2.472,0,0,1-.92-.6,2.472,2.472,0,0,1-.6-.92,4.419,4.419,0,0,1-.276-1.485c-.038-.844-.047-1.1-.047-3.233s.009-2.389.047-3.233a4.419,4.419,0,0,1,.276-1.485,2.472,2.472,0,0,1,.6-.92,2.472,2.472,0,0,1,.92-.6,4.419,4.419,0,0,1,1.485-.276c.844-.038,1.1-.047,3.233-.047M8,0C5.827,0,5.555.009,4.7.048A5.868,5.868,0,0,0,2.76.42a3.908,3.908,0,0,0-1.417.923A3.908,3.908,0,0,0,.42,2.76,5.868,5.868,0,0,0,.048,4.7C.009,5.555,0,5.827,0,8s.009,2.445.048,3.3A5.868,5.868,0,0,0,.42,13.24a3.908,3.908,0,0,0,.923,1.417,3.908,3.908,0,0,0,1.417.923,5.868,5.868,0,0,0,1.942.372C5.555,15.991,5.827,16,8,16s2.445-.009,3.3-.048a5.868,5.868,0,0,0,1.942-.372,4.094,4.094,0,0,0,2.34-2.34,5.868,5.868,0,0,0,.372-1.942c.039-.853.048-1.125.048-3.3s-.009-2.445-.048-3.3A5.868,5.868,0,0,0,15.58,2.76a3.908,3.908,0,0,0-.923-1.417A3.908,3.908,0,0,0,13.24.42,5.868,5.868,0,0,0,11.3.048C10.445.009,10.173,0,8,0Z" fill="#000000"></path><path d="M8,3.892A4.108,4.108,0,1,0,12.108,8,4.108,4.108,0,0,0,8,3.892Zm0,6.775A2.667,2.667,0,1,1,10.667,8,2.667,2.667,0,0,1,8,10.667Z" fill="#000000"></path><circle cx="12.27" cy="3.73" r="0.96" fill="#000000"></circle></g></svg>